<svg width="601" height="851" viewBox="0 0 601 851" fill="none" xmlns="http://www.w3.org/2000/svg">
<mask id="mask0_10_249" style="mask-type:alpha" maskUnits="userSpaceOnUse" x="0" y="0" width="601" height="851">
<rect x="1.20227" y="1.18933" width="599" height="849" rx="39.5" fill="white" stroke="#F0F0F0"/>
</mask>
<g mask="url(#mask0_10_249)">
<path d="M315.553 73.5793C254.414 68.429 260.922 9.50669 271.819 -19.3107H667.191C671.462 59.7838 669.223 217.513 626.108 215.673C572.214 213.374 541.291 198.659 487.396 127.382C433.502 56.105 391.977 80.0172 315.553 73.5793Z" fill="#0054C5"/>
<path d="M295.184 792.618C356.323 797.768 349.815 856.691 338.918 885.508H-56.454C-60.7243 806.414 -58.4861 648.685 -15.3706 650.524C38.5237 652.823 69.4467 667.538 123.341 738.815C177.235 810.092 218.76 786.18 295.184 792.618Z" fill="#FFB700"/>
</g>
</svg>
